<svg width="32" height="32" viewBox="0 0 32 32" xmlns="http://www.w3.org/2000/svg">
  <!-- Voucher background -->
  <rect x="2" y="6" width="27" height="19" fill="#fef9c3" stroke="#dc3545" stroke-width="2" stroke-dasharray="2,2"/>
  
  <!-- Perforation dots -->
  <circle cx="1" cy="8" r="0.5" fill="#dc3545"/>
  <circle cx="1" cy="12" r="0.5" fill="#dc3545"/>
  <circle cx="1" cy="16" r="0.5" fill="#dc3545"/>
  <circle cx="1" cy="20" r="0.5" fill="#dc3545"/>
  <circle cx="1" cy="24" r="0.5" fill="#dc3545"/>
  
  <circle cx="30" cy="8" r="0.5" fill="#dc3545"/>
  <circle cx="30" cy="12" r="0.5" fill="#dc3545"/>
  <circle cx="30" cy="16" r="0.5" fill="#dc3545"/>
  <circle cx="30" cy="20" r="0.5" fill="#dc3545"/>
  <circle cx="30" cy="24" r="0.5" fill="#dc3545"/>
  
  <!-- Top perforation -->
  <circle cx="6" cy="5" r="0.5" fill="#dc3545"/>
  <circle cx="10" cy="5" r="0.5" fill="#dc3545"/>
  <circle cx="14" cy="5" r="0.5" fill="#dc3545"/>
  <circle cx="18" cy="5" r="0.5" fill="#dc3545"/>
  <circle cx="22" cy="5" r="0.5" fill="#dc3545"/>
  <circle cx="26" cy="5" r="0.5" fill="#dc3545"/>
  
  <!-- Bottom perforation -->
  <circle cx="6" cy="26" r="0.5" fill="#dc3545"/>
  <circle cx="10" cy="26" r="0.5" fill="#dc3545"/>
  <circle cx="14" cy="26" r="0.5" fill="#dc3545"/>
  <circle cx="18" cy="26" r="0.5" fill="#dc3545"/>
  <circle cx="22" cy="26" r="0.5" fill="#dc3545"/>
  <circle cx="26" cy="26" r="0.5" fill="#dc3545"/>
  
  <!-- Percentage symbol -->
  <text x="15.5" y="18" font-family="Arial, sans-serif" font-size="12" font-weight="bold" text-anchor="middle" fill="#dc3545">%</text>
  
  <!-- Text lines -->
  <rect x="6" y="21" width="8" height="1" fill="#666"/>
  <rect x="16" y="21" width="9" height="1" fill="#666"/>
</svg>
