<?xml version="1.0" encoding="UTF-8"?>
<svg version="1.1" xmlns="http://www.w3.org/2000/svg" width="512" height="512">
<path d="M0 0 C0.83118996 -0.00235223 1.66237993 -0.00470446 2.51875746 -0.00712797 C5.33427609 -0.01384248 8.14974883 -0.01335901 10.96527481 -0.01294994 C12.99212727 -0.01624704 15.01897906 -0.01997228 17.04583001 -0.02409142 C22.63930293 -0.03413702 28.23276512 -0.03783232 33.82624578 -0.04048073 C39.84956286 -0.0443762 45.87287138 -0.05395501 51.89618301 -0.0626936 C65.76562103 -0.08154366 79.63505825 -0.09171709 93.50450538 -0.10015428 C100.3555072 -0.10435845 107.20650815 -0.10958074 114.05750923 -0.11483881 C137.50060757 -0.13273013 160.94370616 -0.1477271 184.3868103 -0.155159 C185.8590175 -0.15563376 187.33122469 -0.15610965 188.80343188 -0.15658666 C189.53352797 -0.15682303 190.26362405 -0.15705941 191.01584426 -0.15730295 C194.7149912 -0.15850417 198.41413813 -0.15971961 202.11328506 -0.16094494 C203.21445348 -0.16130516 203.21445348 -0.16130516 204.33786773 -0.16167267 C228.14547704 -0.16956754 251.95303656 -0.19300267 275.76062412 -0.22550088 C300.92025576 -0.2597821 326.07985825 -0.27950854 351.23951364 -0.28280324 C354.00033714 -0.28322079 356.76116062 -0.28370036 359.5219841 -0.28422642 C360.54170285 -0.28441121 360.54170285 -0.28441121 361.58202197 -0.28459973 C372.53232781 -0.28693387 383.48257593 -0.30260573 394.43286118 -0.32306826 C405.43541304 -0.3433026 416.43790483 -0.34848091 427.44047329 -0.33929763 C433.40368624 -0.33473802 439.36671137 -0.33673538 445.32989883 -0.35605907 C450.78528749 -0.3735851 456.24034983 -0.37277933 461.69574144 -0.35716178 C463.67289905 -0.35476958 465.65007863 -0.35919196 467.62720248 -0.37099043 C470.30869268 -0.38600535 472.98901101 -0.37650937 475.67047119 -0.36076355 C476.44347537 -0.37098576 477.21647955 -0.38120796 478.0129081 -0.39173993 C484.10584846 -0.3133068 487.40619577 1.82325374 491.89941788 5.69672108 C494.93465338 9.37095353 494.2418795 14.07399857 494.24805069 18.56537342 C494.25301559 19.42584782 494.2579805 20.28632221 494.26309586 21.17287159 C494.2777116 24.02197536 494.28451824 26.87102346 494.29004288 29.72015858 C494.29579448 31.69929474 494.30155221 33.67843089 494.30731583 35.65756702 C494.31782391 39.80864185 494.32366795 43.95969732 494.32715225 48.11078358 C494.3326389 53.42947557 494.35667143 58.74791181 494.38512421 64.06652355 C494.40374805 68.15517392 494.40895604 72.24376262 494.41048813 76.33245182 C494.41351537 78.2932586 494.42154629 80.25406427 494.43467331 82.21482944 C494.45172967 84.95817758 494.44985466 87.70090001 494.44336319 90.44427967 C494.45718536 91.65856899 494.45718536 91.65856899 494.47128677 92.89738941 C494.4268468 98.89329051 493.07258436 102.02821117 489.02441788 106.32172108 C484.28025348 109.24897145 479.09220987 109.70283945 473.63769913 110.48578358 C462.57374634 112.30305118 451.98768504 117.5657607 445.21582413 126.64203358 C437.06912272 138.80280616 434.92798534 150.93221264 437.70801163 165.35687733 C441.42296679 176.83196106 449.16838709 185.94687392 459.73144913 191.53265858 C466.61266459 194.71994178 473.15281234 195.90153562 480.64160538 196.48187733 C485.65138629 197.43044129 488.63122789 199.71244072 492.23085403 203.22821522 C494.76705509 207.19909971 494.64335685 210.26637794 494.58862686 214.88422108 C494.59402985 215.7547411 494.59943283 216.62526112 494.60499954 217.52216053 C494.61748368 220.39319564 494.60099794 223.26322734 494.58301163 226.13422108 C494.58316662 228.13291953 494.58465569 230.13161828 494.58742142 232.13031483 C494.58880527 236.31664811 494.57624948 240.50263873 494.55347061 244.68890858 C494.52508618 250.05244693 494.52782356 255.41541598 494.54056072 260.77899647 C494.54751886 264.90542931 494.53972704 269.03173079 494.5273037 273.15814686 C494.52279052 275.1356808 494.52245123 277.11322884 494.52636909 279.09076405 C494.5292826 281.85554331 494.51276758 284.61954067 494.49097061 287.38422108 C494.49547226 288.19995594 494.49997391 289.0156908 494.50461197 289.85614491 C494.44452029 294.44840781 494.0152363 297.38404944 491.08691788 301.13422108 C485.93309153 305.65953202 482.8796656 306.28115857 476.17383575 306.26844215 C475.34264579 306.27079438 474.51145583 306.27314661 473.65507829 306.27557012 C470.83955967 306.28228464 468.02408693 306.28180117 465.20856094 306.2813921 C463.18170849 306.2846892 461.15485669 306.28841443 459.12800574 306.29253358 C453.53453282 306.30257918 447.94107064 306.30627447 442.34758997 306.30892289 C436.32427289 306.31281835 430.30096437 306.32239717 424.27765274 306.33113575 C410.40821472 306.34998581 396.53877751 306.36015924 382.66933038 306.36859643 C375.81832855 306.37280061 368.96732761 306.3780229 362.11632652 306.38328096 C338.67322818 306.40117228 315.2301296 306.41616925 291.78702545 306.42360115 C290.31481826 306.42407591 288.84261106 306.4245518 287.37040387 306.42502881 C286.64030779 306.42526519 285.9102117 306.42550156 285.1579915 306.4257451 C281.45884456 306.42694633 277.75969762 306.42816177 274.06055069 306.42938709 C272.95938227 306.42974732 272.95938227 306.42974732 271.83596803 306.43011482 C248.02835872 306.4380097 224.2207992 306.46144482 200.41321163 306.49394304 C175.25358 306.52822426 150.0939775 306.5479507 124.93432212 306.55124539 C122.17349862 306.55166294 119.41267514 306.55214251 116.65185165 306.55266857 C115.63213291 306.55285336 115.63213291 306.55285336 114.59181378 306.55304188 C103.64150794 306.55537602 92.69125982 306.57104789 81.74097457 306.59151042 C70.73842271 306.61174476 59.73593092 306.61692307 48.73336247 306.60773978 C42.77014951 306.60318017 36.80712438 306.60517753 30.84393692 306.62450123 C25.38854826 306.64202725 19.93348593 306.64122148 14.47809431 306.62560394 C12.5009367 306.62321174 10.52375712 306.62763412 8.54663327 306.63943259 C5.86514308 306.6544475 3.18482475 306.64495152 0.50336456 306.6292057 C-0.65614171 306.64453901 -0.65614171 306.64453901 -1.83907235 306.66018209 C-7.9320127 306.58174896 -11.23236002 304.44518841 -15.72558212 300.57172108 C-18.76465157 296.89284753 -18.08980103 292.14490971 -18.12182236 287.64301014 C-18.13160614 286.77599476 -18.14138992 285.90897938 -18.15147018 285.0156908 C-18.18140663 282.14375815 -18.20280485 279.27187201 -18.22167587 276.39984608 C-18.2282477 275.41840374 -18.23481953 274.4369614 -18.2415905 273.42577839 C-18.27417658 268.23062551 -18.29862919 263.03549307 -18.31811142 257.84027576 C-18.33592415 253.54309704 -18.37074514 249.24657457 -18.42065048 244.94965076 C-18.48086423 239.75898417 -18.51158873 234.56892605 -18.5212841 229.37792683 C-18.5298378 227.40196878 -18.5486538 225.42602696 -18.57802773 223.45026875 C-18.61698929 220.68046378 -18.61797115 217.91302462 -18.61010361 215.14301014 C-18.63010422 214.33132374 -18.65010483 213.51963734 -18.67071152 212.68335438 C-18.60226689 207.29880698 -17.2429524 204.49234695 -13.59170246 200.54406834 C-9.61719866 197.20594407 -6.00846275 196.8047207 -0.91308212 196.32172108 C10.79448801 194.9470386 20.73364867 190.64646254 29.08691788 182.13422108 C31.81954476 178.64367693 34.03791571 175.06147523 36.08691788 171.13422108 C36.44785538 170.45101795 36.80879288 169.76781483 37.18066788 169.06390858 C40.95831079 160.14447393 40.53031032 147.2885333 37.58691788 138.19672108 C31.97347749 125.34905821 23.28922238 117.2926244 10.45019913 112.15375233 C5.52832867 110.66175675 0.6351378 110.18201307 -4.46776962 109.78656483 C-9.47755054 108.83800087 -12.45739213 106.55600143 -16.05701828 103.04022694 C-18.59321934 99.06934244 -18.4695211 96.00206421 -18.41479111 91.38422108 C-18.42019409 90.51370106 -18.42559708 89.64318104 -18.43116379 88.74628162 C-18.44364792 85.87524651 -18.42716218 83.00521481 -18.40917587 80.13422108 C-18.40933087 78.13552263 -18.41081993 76.13682387 -18.41358566 74.13812733 C-18.41496952 69.95179405 -18.40241372 65.76580343 -18.37963486 61.57953358 C-18.35125043 56.21599522 -18.35398781 50.85302617 -18.36672497 45.48944569 C-18.37368311 41.36301284 -18.36589128 37.23671137 -18.35346794 33.1102953 C-18.34895477 31.13276136 -18.34861547 29.15521331 -18.35253334 27.17767811 C-18.35544685 24.41289885 -18.33893182 21.64890149 -18.31713486 18.88422108 C-18.32163651 18.06848621 -18.32613815 17.25275135 -18.33077621 16.41229725 C-18.27068454 11.82003435 -17.84140054 8.88439271 -14.91308212 5.13422108 C-9.75925577 0.60891014 -6.70582984 -0.01271642 0 0 Z M12.08691788 30.13422108 C12.08691788 46.63422108 12.08691788 63.13422108 12.08691788 80.13422108 C14.72691788 81.12422108 17.36691788 82.11422108 20.08691788 83.13422108 C41.12534712 91.08146731 54.98159386 103.47868117 64.64941788 123.73187733 C72.73894701 142.87856178 72.02489946 164.18529454 64.39941788 183.32172108 C60.48251157 191.99347881 55.17223413 199.74015519 48.08691788 206.13422108 C47.22453506 207.01980701 47.22453506 207.01980701 46.34473038 207.92328358 C37.78826262 216.28601999 26.36309374 221.74907491 14.80957413 224.66156483 C13.07013643 224.98606713 13.07013643 224.98606713 12.08691788 226.13422108 C12.08691788 242.63422108 12.08691788 259.13422108 12.08691788 276.13422108 C49.04691788 276.13422108 86.00691788 276.13422108 124.08691788 276.13422108 C124.41691788 260.62422108 124.74691788 245.11422108 125.08691788 229.13422108 C129.86896916 219.57011851 129.86896916 219.57011851 134.08691788 218.13422108 C139.38567212 217.49415749 143.67292747 217.50297536 148.58691788 219.69672108 C161.90227876 232.67919794 154.88428588 266.61051725 155.08691788 276.13422108 C257.05691788 276.13422108 359.02691788 276.13422108 464.08691788 276.13422108 C464.08691788 259.63422108 464.08691788 243.13422108 464.08691788 226.13422108 C461.44691788 225.14422108 458.80691788 224.15422108 456.08691788 223.13422108 C435.04848864 215.18697484 421.1922419 202.78976098 411.52441788 182.53656483 C403.43488874 163.38988038 404.14893629 142.08314762 411.77441788 122.94672108 C415.69132418 114.27496334 421.00160163 106.52828696 428.08691788 100.13422108 C428.66183975 99.54383045 429.23676163 98.95343983 429.82910538 98.34515858 C438.38557313 89.98242217 449.81074201 84.51936725 461.36426163 81.60687733 C463.10369933 81.28237502 463.10369933 81.28237502 464.08691788 80.13422108 C464.08691788 63.63422108 464.08691788 47.13422108 464.08691788 30.13422108 C362.11691788 30.13422108 260.14691788 30.13422108 155.08691788 30.13422108 C154.75691788 45.64422108 154.42691788 61.15422108 154.08691788 77.13422108 C150.38660242 85.76829048 150.38660242 85.76829048 145.08691788 88.13422108 C139.78351985 88.89974133 135.50558012 88.76755244 130.58691788 86.57172108 C117.271557 73.58924422 124.28954987 39.6579249 124.08691788 30.13422108 C87.12691788 30.13422108 50.16691788 30.13422108 12.08691788 30.13422108 Z " fill="#000000" transform="translate(17.913082122802734,102.86577892303467)"/>
<path d="M0 0 C4.28590933 2.79515826 7.22425239 5.92275717 8.875 10.875 C8.97603901 12.36187835 9.02329193 13.85276552 9.03613281 15.34301758 C9.04574036 16.24437943 9.0553479 17.14574127 9.06524658 18.07441711 C9.06949646 19.04630478 9.07374634 20.01819244 9.078125 21.01953125 C9.08382507 22.02207443 9.08952515 23.02461761 9.09539795 24.05754089 C9.1048466 26.18003281 9.1113814 28.30253938 9.11523438 30.42504883 C9.12493112 33.66448726 9.15595248 36.90328884 9.1875 40.14257812 C9.19403113 42.2057254 9.19928117 44.26887721 9.203125 46.33203125 C9.2154718 47.29784622 9.2278186 48.26366119 9.24053955 49.25874329 C9.22063334 55.30017956 8.62363227 59.86152556 4.375 64.51953125 C-0.58924803 68.38492229 -3.84299659 69.30089854 -10.125 68.875 C-15.38218726 66.98241259 -17.95502532 64.31296456 -21.125 59.875 C-22.04882683 57.04811419 -22.25921672 54.45597267 -22.28613281 51.49291992 C-22.29574036 50.6349028 -22.3053479 49.77688568 -22.31524658 48.89286804 C-22.31949646 47.97302628 -22.32374634 47.05318451 -22.328125 46.10546875 C-22.33382507 45.15110428 -22.33952515 44.19673981 -22.34539795 43.2134552 C-22.35483569 41.19529322 -22.36137706 39.17711591 -22.36523438 37.15893555 C-22.37493157 34.08419664 -22.4059633 31.01012877 -22.4375 27.93554688 C-22.44403143 25.97135812 -22.44928135 24.0071646 -22.453125 22.04296875 C-22.4654718 21.12919968 -22.4778186 20.2154306 -22.49053955 19.27397156 C-22.46921 13.10862095 -21.80252169 7.98482988 -17.625 3.1328125 C-11.87830519 -1.20713931 -6.97281297 -2.51021267 0 0 Z " fill="#000000" transform="translate(164.125,222.125)"/>
</svg>
